<?xml version="1.0" encoding="utf-8"?>
<!-- Generator: Adobe Illustrator 16.0.0, SVG Export Plug-In . SVG Version: 6.00 Build 0)  -->
<!DOCTYPE svg PUBLIC "-//W3C//DTD SVG 1.1//EN" "http://www.w3.org/Graphics/SVG/1.1/DTD/svg11.dtd">
<svg version="1.1" id="Layer_1" xmlns="http://www.w3.org/2000/svg" xmlns:xlink="http://www.w3.org/1999/xlink" x="0px" y="0px"
	 width="1769.9px" height="317.755px" viewBox="0 0 1769.9 317.755" enable-background="new 0 0 1769.9 317.755"
	 xml:space="preserve">
<path fill="#ffffff" d="M56.201,70.141h48.271v143.775h86.42v41.523H56.201V70.141z"/>
<rect x="214.77" y="213.92" fill="#4D63FF" width="147.67" height="41.52"/>
<rect x="214.77" y="141.25" fill="#39B54A" width="147.67" height="37.37"/>
<rect x="214.77" y="70.14" fill="#ED1C24" width="147.67" height="38.67"/>
<path fill="#ffffff" d="M392.546,70.141h79.673c56.835,0,90.833,34.517,90.833,91.871c0,60.728-34.517,93.428-90.833,93.428h-79.673V70.141z
	 M440.817,213.916h22.838c36.592-0.779,51.125-15.052,51.125-52.164c0-33.738-18.166-50.088-51.125-50.088h-22.838V213.916z"/>
<path fill="#ffffff" d="M755.616,66.248c58.392,0,91.352,42.821,91.352,96.542c0,53.721-32.959,96.542-91.352,96.542
	c-58.393,0-91.352-42.821-91.352-96.542C664.265,109.069,697.224,66.248,755.616,66.248z M755.616,217.809
	c31.143,0,43.08-27.51,43.08-55.019c0-27.51-11.938-55.019-43.08-55.019s-43.081,27.509-43.081,55.019
	C712.535,190.299,724.474,217.809,755.616,217.809z"/>
<path fill="#ffffff" d="M1033.309,178.88c0,53.721-24.654,80.452-80.711,80.452c-56.057,0-80.712-26.731-80.712-80.452V70.141h48.271v111.594
	c0,23.876,8.823,36.074,32.44,36.074c23.616,0,32.439-12.198,32.439-36.074V70.141h48.271V178.88z"/>
<path fill="#ffffff" d="M1212.381,111.664h-55.277v143.775h-48.271V111.664h-55.277V70.141h158.826V111.664z"/>
<path fill="#ffffff" d="M1233.665,70.141h48.271v143.775h86.421v41.523h-134.691V70.141z"/>
<path fill="#ffffff" d="M1716.898,111.664h-55.277v143.775h-48.271V111.664h-55.277V70.141h158.826V111.664z"/>
<rect x="1392.236" y="213.92" fill="#4D63FF" width="147.67" height="41.52"/>
<rect x="1392.236" y="141.25" fill="#39B54A" width="147.67" height="37.37"/>
<rect x="1392.236" y="70.14" fill="#ED1C24" width="147.67" height="38.67"/>
</svg>
